<svg width="24" height="24" viewBox="0 0 24 24" fill="none" xmlns="http://www.w3.org/2000/svg">
<g clip-path="url(#clip0_2266_764)">
<path d="M0 0H24V8H0V0Z" fill="#FF9933"/>
<path d="M0 8H24V16H0V8Z" fill="white"/>
<path d="M0 16H24V24H0V16Z" fill="#128807"/>
<path d="M11.732 15.1998C13.4531 15.1998 14.8483 13.7671 14.8483 11.9998C14.8483 10.2325 13.4531 8.7998 11.732 8.7998C10.0109 8.7998 8.61572 10.2325 8.61572 11.9998C8.61572 13.7671 10.0109 15.1998 11.732 15.1998Z" fill="#000088"/>
<path d="M11.7319 14.8C13.2378 14.8 14.4586 13.5463 14.4586 12C14.4586 10.4536 13.2378 9.19995 11.7319 9.19995C10.2259 9.19995 9.00513 10.4536 9.00513 12C9.00513 13.5463 10.2259 14.8 11.7319 14.8Z" fill="white"/>
<path d="M11.7319 12.5602C12.0331 12.5602 12.2772 12.3095 12.2772 12.0002C12.2772 11.6909 12.0331 11.4402 11.7319 11.4402C11.4307 11.4402 11.1865 11.6909 11.1865 12.0002C11.1865 12.3095 11.4307 12.5602 11.7319 12.5602Z" fill="#000088"/>
<path d="M14.4179 12.5089C14.4946 12.5193 14.5651 12.4638 14.5752 12.3849C14.5853 12.3061 14.5312 12.2338 14.4545 12.2234C14.3777 12.213 14.3072 12.2685 14.2971 12.3474C14.287 12.4262 14.3411 12.4985 14.4179 12.5089Z" fill="#000088"/>
<path d="M11.7331 14.7996L11.8266 13.1196L11.7331 12.3196L11.6396 13.1196L11.7331 14.7996Z" fill="#000088"/>
<path d="M14.2002 13.192C14.2727 13.2296 14.3547 13.2063 14.3834 13.1401C14.4121 13.0738 14.3765 12.9895 14.3039 12.9519C14.2314 12.9143 14.1494 12.9375 14.1207 13.0038C14.0921 13.0701 14.1276 13.1543 14.2002 13.192Z" fill="#000088"/>
<path d="M11.0408 14.6949L11.5498 13.119L11.6393 12.3181L11.3426 13.0507L11.0408 14.6949Z" fill="#000088"/>
<path d="M13.8156 13.8103C13.8799 13.8636 13.9679 13.8595 14.0122 13.8013C14.0564 13.743 14.0402 13.6526 13.9759 13.5994C13.9115 13.5461 13.8235 13.5501 13.7792 13.6084C13.735 13.6666 13.7512 13.757 13.8156 13.8103Z" fill="#000088"/>
<path d="M10.3805 14.4161L11.2755 13.0283L11.5651 12.2846L11.0905 12.9161L10.3805 14.4161Z" fill="#000088"/>
<path d="M13.2845 14.3012C13.3337 14.3689 13.4218 14.3883 13.4811 14.3446C13.5405 14.3008 13.5487 14.2104 13.4995 14.1427C13.4503 14.0749 13.3623 14.0555 13.3029 14.0993C13.2435 14.143 13.2353 14.2334 13.2845 14.3012Z" fill="#000088"/>
<path d="M9.80922 13.9689L11.0304 12.8743L11.5071 12.2369L10.8883 12.7169L9.80922 13.9689Z" fill="#000088"/>
<path d="M12.6386 14.6508C12.6643 14.7196 12.7464 14.747 12.8218 14.712C12.8972 14.6769 12.9374 14.5927 12.9117 14.5238C12.8859 14.455 12.8039 14.4276 12.7284 14.4627C12.653 14.4977 12.6128 14.582 12.6386 14.6508Z" fill="#000088"/>
<path d="M9.36471 13.4112L10.8307 12.6274L11.4695 12.1484L10.7505 12.484L9.36471 13.4112Z" fill="#000088"/>
<path d="M11.939 14.8014C11.9441 14.8766 12.0146 14.9263 12.0963 14.9123C12.178 14.8984 12.2401 14.826 12.2349 14.7508C12.2298 14.6755 12.1593 14.6258 12.0776 14.6398C11.9959 14.6538 11.9338 14.7261 11.939 14.8014Z" fill="#000088"/>
<path d="M9.09101 12.7342L10.6981 12.3688L11.4383 12.0726L10.6642 12.2032L9.09101 12.7342Z" fill="#000088"/>
<path d="M11.2376 14.7761C11.2271 14.8652 11.2804 14.9372 11.3568 14.9371C11.4331 14.9369 11.5036 14.8646 11.5141 14.7755C11.5247 14.6865 11.4713 14.6144 11.395 14.6146C11.3186 14.6147 11.2482 14.6871 11.2376 14.7761Z" fill="#000088"/>
<path d="M9.01256 11.9293L10.6321 12.0503L11.4136 12.0702L10.6461 11.9992L9.01256 11.9293Z" fill="#000088"/>
<path d="M10.5548 14.5441C10.5271 14.6249 10.5642 14.7091 10.6378 14.7322C10.7113 14.7554 10.7933 14.7087 10.821 14.6279C10.8487 14.5472 10.8115 14.4629 10.738 14.4398C10.6645 14.4166 10.5824 14.4633 10.5548 14.5441Z" fill="#000088"/>
<path d="M9.09271 11.3423L10.6637 11.8459L11.4382 11.8493L10.6995 11.5256L9.09271 11.3423Z" fill="#000088"/>
<path d="M9.955 14.124C9.91085 14.1821 9.92731 14.2725 9.99176 14.3259C10.0562 14.3794 10.1442 14.3756 10.1884 14.3175C10.2325 14.2595 10.2161 14.1691 10.1516 14.1156C10.0872 14.0622 9.99914 14.066 9.955 14.124Z" fill="#000088"/>
<path d="M9.36406 10.5882L10.7499 11.5154L11.469 11.8512L10.83 11.3721L9.36406 10.5882Z" fill="#000088"/>
<path d="M9.47843 13.5794C9.41932 13.6222 9.41152 13.7126 9.461 13.7813C9.51049 13.8499 9.59852 13.8709 9.65762 13.8281C9.71673 13.7852 9.72453 13.6948 9.67505 13.6261C9.62557 13.5575 9.53754 13.5365 9.47843 13.5794Z" fill="#000088"/>
<path d="M9.79786 10.0092L10.9026 11.2687L11.5175 11.7839L11.0229 11.1541L9.79786 10.0092Z" fill="#000088"/>
<path d="M9.1584 12.9279C9.08724 12.953 9.05389 13.0372 9.08392 13.116C9.11395 13.1948 9.19598 13.2383 9.26714 13.2132C9.33831 13.1881 9.37165 13.1038 9.34163 13.0251C9.3116 12.9463 9.22957 12.9027 9.1584 12.9279Z" fill="#000088"/>
<path d="M10.3671 9.56658L11.1079 11.0725L11.5779 11.731L11.2667 10.9932L10.3671 9.56658Z" fill="#000088"/>
<path d="M9.01188 12.2095C8.93427 12.2132 8.87889 12.2856 8.88818 12.3711C8.89747 12.4566 8.96791 12.5229 9.04552 12.5192C9.12312 12.5155 9.1785 12.4431 9.16921 12.3576C9.15992 12.2721 9.08948 12.2058 9.01188 12.2095Z" fill="#000088"/>
<path d="M11.0302 9.28689L11.3559 10.9375L11.6489 11.6991L11.5429 10.9045L11.0302 9.28689Z" fill="#000088"/>
<path d="M9.04211 11.5011C8.96244 11.4852 8.892 11.5317 8.88477 11.605C8.87754 11.6783 8.93625 11.7506 9.01591 11.7666C9.09558 11.7825 9.16602 11.736 9.17325 11.6627C9.18048 11.5894 9.12177 11.517 9.04211 11.5011Z" fill="#000088"/>
<path d="M11.782 9.21635L11.6708 10.8583L11.6821 11.664L11.7578 10.8906L11.782 9.21635Z" fill="#000088"/>
<path d="M9.26386 10.8041C9.19023 10.7684 9.1082 10.7947 9.08064 10.8629C9.05307 10.9311 9.09042 11.0153 9.16405 11.051C9.23768 11.0868 9.31971 11.0604 9.34727 10.9923C9.37483 10.9241 9.33749 10.8398 9.26386 10.8041Z" fill="#000088"/>
<path d="M12.4224 9.30164L11.9144 10.885L11.8296 11.6848L12.1273 10.9471L12.4224 9.30164Z" fill="#000088"/>
<path d="M9.65079 10.1907C9.58714 10.1366 9.49911 10.1393 9.45416 10.1968C9.40922 10.2542 9.42438 10.3446 9.48803 10.3987C9.55168 10.4527 9.63971 10.45 9.68465 10.3926C9.72959 10.3352 9.71443 10.2448 9.65079 10.1907Z" fill="#000088"/>
<path d="M13.087 9.58552L12.1909 10.9683L11.8961 11.7127L12.3695 11.0848L13.087 9.58552Z" fill="#000088"/>
<path d="M10.182 9.70141C10.1333 9.63211 10.0452 9.61014 9.98533 9.65235C9.92544 9.69455 9.91636 9.78495 9.96505 9.85425C10.0137 9.92356 10.1018 9.94552 10.1617 9.90332C10.2216 9.86111 10.2307 9.77071 10.182 9.70141Z" fill="#000088"/>
<path d="M13.6573 10.0352L12.4354 11.119L11.9559 11.7581L12.574 11.2855L13.6573 10.0352Z" fill="#000088"/>
<path d="M10.8271 9.34869C10.8013 9.27985 10.7193 9.25248 10.6438 9.28756C10.5684 9.32263 10.5282 9.40687 10.5539 9.4757C10.5797 9.54454 10.6617 9.57191 10.7372 9.53684C10.8126 9.50176 10.8528 9.41753 10.8271 9.34869Z" fill="#000088"/>
<path d="M14.1009 10.588L12.6349 11.3719L11.996 11.8509L12.7151 11.5152L14.1009 10.588Z" fill="#000088"/>
<path d="M11.5262 9.19801C11.5211 9.12269 11.4506 9.07292 11.3688 9.08683C11.2871 9.10074 11.2249 9.17308 11.23 9.24839C11.2351 9.32371 11.3056 9.37349 11.3873 9.35957C11.4691 9.34566 11.5313 9.27333 11.5262 9.19801Z" fill="#000088"/>
<path d="M14.3738 11.2652L12.7667 11.6302L12.0263 11.9265L12.8005 11.7962L14.3738 11.2652Z" fill="#000088"/>
<path d="M12.2269 9.22416C12.2382 9.13519 12.186 9.06286 12.1103 9.06259C12.0346 9.06233 11.9642 9.13423 11.953 9.22319C11.9417 9.31216 11.9939 9.38449 12.0696 9.38476C12.1453 9.38502 12.2157 9.31312 12.2269 9.22416Z" fill="#000088"/>
<path d="M14.4504 12.0724L12.8359 11.9505L12.0536 11.9265L12.8176 11.9966L14.4504 12.0724Z" fill="#000088"/>
<path d="M12.9095 9.45427C12.9376 9.37294 12.9012 9.2887 12.8282 9.26612C12.7551 9.24355 12.6731 9.29118 12.6449 9.37251C12.6168 9.45384 12.6532 9.53808 12.7263 9.56065C12.7993 9.58323 12.8814 9.5356 12.9095 9.45427Z" fill="#000088"/>
<path d="M14.3751 12.6425L12.7989 12.1441L12.0252 12.1648L12.7676 12.4937L14.3751 12.6425Z" fill="#000088"/>
<path d="M13.5045 9.86046C13.5519 9.79383 13.5406 9.70343 13.4794 9.65856C13.4182 9.61368 13.3302 9.63132 13.2828 9.69795C13.2354 9.76459 13.2466 9.85498 13.3079 9.89986C13.3691 9.94473 13.4571 9.92709 13.5045 9.86046Z" fill="#000088"/>
<path d="M14.0946 13.3875L12.7239 12.4688L12.0026 12.1725L12.6309 12.66L14.0946 13.3875Z" fill="#000088"/>
<path d="M13.981 10.4046C14.0428 10.3528 14.0551 10.2624 14.0083 10.2027C13.9615 10.143 13.8735 10.1366 13.8117 10.1884C13.7498 10.2402 13.7376 10.3306 13.7844 10.3903C13.8311 10.45 13.9191 10.4564 13.981 10.4046Z" fill="#000088"/>
<path d="M13.6601 13.9717L12.5704 12.7189L11.9533 12.235L12.4373 12.8715L13.6601 13.9717Z" fill="#000088"/>
<path d="M14.304 11.0564C14.3761 11.0227 14.411 10.9385 14.3819 10.8682C14.3528 10.798 14.2707 10.7683 14.1986 10.8019C14.1266 10.8355 14.0917 10.9198 14.1208 10.99C14.1499 11.0603 14.2319 11.09 14.304 11.0564Z" fill="#000088"/>
<path d="M13.0934 14.4187L12.3594 12.9179L11.8884 12.2829L12.1949 13.0259L13.0934 14.4187Z" fill="#000088"/>
<path d="M14.4529 11.7723C14.5303 11.7589 14.5853 11.6865 14.5757 11.6108C14.5662 11.535 14.4957 11.4846 14.4184 11.498C14.341 11.5115 14.2861 11.5839 14.2956 11.6596C14.3051 11.7354 14.3756 11.7858 14.4529 11.7723Z" fill="#000088"/>
<path d="M12.4349 14.6997L12.1081 13.0537L11.8152 12.3129L11.9221 13.112L12.4349 14.6997Z" fill="#000088"/>
</g>
<defs>
<clipPath id="clip0_2266_764">
<rect width="24" height="24" rx="12" fill="white"/>
</clipPath>
</defs>
</svg>
